<mxfile host="app.diagrams.net" modified="2023-05-30T05:42:20.455Z" agent="Mozilla/5.0 (Windows NT 10.0; Win64; x64) AppleWebKit/537.36 (KHTML, like Gecko) Chrome/113.0.0.0 Safari/537.36" etag="9EomxEsQYxwTsmP4z869" version="21.3.5" type="device">
  <diagram name="Page-1" id="8znlyCcKQdYdPqPaNtu6">
    <mxGraphModel dx="1047" dy="541" grid="0" gridSize="10" guides="1" tooltips="1" connect="1" arrows="1" fold="1" page="1" pageScale="1" pageWidth="827" pageHeight="1169" math="0" shadow="0">
      <root>
        <mxCell id="0" />
        <mxCell id="1" parent="0" />
        <mxCell id="sX6JPbbw8dcOBYZ7qyeX-10" style="edgeStyle=orthogonalEdgeStyle;rounded=0;orthogonalLoop=1;jettySize=auto;html=1;exitX=1;exitY=0.5;exitDx=0;exitDy=0;exitPerimeter=0;entryX=0;entryY=0.57;entryDx=0;entryDy=0;entryPerimeter=0;" edge="1" parent="1" source="sX6JPbbw8dcOBYZ7qyeX-3" target="sX6JPbbw8dcOBYZ7qyeX-6">
          <mxGeometry relative="1" as="geometry" />
        </mxCell>
        <mxCell id="sX6JPbbw8dcOBYZ7qyeX-18" style="edgeStyle=orthogonalEdgeStyle;rounded=0;orthogonalLoop=1;jettySize=auto;html=1;exitX=0;exitY=0.5;exitDx=0;exitDy=0;exitPerimeter=0;entryX=1;entryY=0.8;entryDx=0;entryDy=0;entryPerimeter=0;" edge="1" parent="1" source="sX6JPbbw8dcOBYZ7qyeX-3" target="sX6JPbbw8dcOBYZ7qyeX-7">
          <mxGeometry relative="1" as="geometry" />
        </mxCell>
        <mxCell id="sX6JPbbw8dcOBYZ7qyeX-3" value="" style="verticalLabelPosition=bottom;shadow=0;dashed=0;align=center;fillColor=strokeColor;html=1;verticalAlign=top;strokeWidth=1;shape=mxgraph.electrical.miscellaneous.monocell_battery;direction=north;" vertex="1" parent="1">
          <mxGeometry x="120" y="225" width="60" height="100" as="geometry" />
        </mxCell>
        <mxCell id="sX6JPbbw8dcOBYZ7qyeX-19" style="edgeStyle=orthogonalEdgeStyle;rounded=0;orthogonalLoop=1;jettySize=auto;html=1;exitX=0.7;exitY=1;exitDx=0;exitDy=0;exitPerimeter=0;entryX=1;entryY=0.8;entryDx=0;entryDy=0;entryPerimeter=0;" edge="1" parent="1" source="sX6JPbbw8dcOBYZ7qyeX-5" target="sX6JPbbw8dcOBYZ7qyeX-7">
          <mxGeometry relative="1" as="geometry" />
        </mxCell>
        <mxCell id="sX6JPbbw8dcOBYZ7qyeX-5" value="" style="verticalLabelPosition=bottom;shadow=0;dashed=0;align=center;html=1;verticalAlign=top;shape=mxgraph.electrical.transistors.npn_transistor_1;" vertex="1" parent="1">
          <mxGeometry x="590" y="225" width="95" height="100" as="geometry" />
        </mxCell>
        <mxCell id="sX6JPbbw8dcOBYZ7qyeX-11" style="edgeStyle=orthogonalEdgeStyle;rounded=0;orthogonalLoop=1;jettySize=auto;html=1;exitX=1;exitY=0.57;exitDx=0;exitDy=0;exitPerimeter=0;entryX=0.7;entryY=0;entryDx=0;entryDy=0;entryPerimeter=0;" edge="1" parent="1" source="sX6JPbbw8dcOBYZ7qyeX-6" target="sX6JPbbw8dcOBYZ7qyeX-5">
          <mxGeometry relative="1" as="geometry" />
        </mxCell>
        <mxCell id="sX6JPbbw8dcOBYZ7qyeX-6" value="" style="verticalLabelPosition=bottom;shadow=0;dashed=0;align=center;html=1;verticalAlign=top;shape=mxgraph.electrical.opto_electronics.led_2;pointerEvents=1;" vertex="1" parent="1">
          <mxGeometry x="369" y="80" width="100" height="70" as="geometry" />
        </mxCell>
        <mxCell id="sX6JPbbw8dcOBYZ7qyeX-17" style="edgeStyle=orthogonalEdgeStyle;rounded=0;orthogonalLoop=1;jettySize=auto;html=1;exitX=0;exitY=0.8;exitDx=0;exitDy=0;exitPerimeter=0;" edge="1" parent="1" source="sX6JPbbw8dcOBYZ7qyeX-7">
          <mxGeometry relative="1" as="geometry">
            <mxPoint x="515" y="270" as="targetPoint" />
          </mxGeometry>
        </mxCell>
        <mxCell id="sX6JPbbw8dcOBYZ7qyeX-7" value="" style="verticalLabelPosition=bottom;shadow=0;dashed=0;align=center;html=1;verticalAlign=top;shape=mxgraph.electrical.opto_electronics.photo_resistor_2;pointerEvents=1;direction=south;" vertex="1" parent="1">
          <mxGeometry x="505" y="325" width="50" height="100" as="geometry" />
        </mxCell>
        <mxCell id="sX6JPbbw8dcOBYZ7qyeX-15" style="edgeStyle=orthogonalEdgeStyle;rounded=0;orthogonalLoop=1;jettySize=auto;html=1;exitX=1;exitY=0.5;exitDx=0;exitDy=0;exitPerimeter=0;entryX=0;entryY=0.5;entryDx=0;entryDy=0;entryPerimeter=0;" edge="1" parent="1" source="sX6JPbbw8dcOBYZ7qyeX-8" target="sX6JPbbw8dcOBYZ7qyeX-5">
          <mxGeometry relative="1" as="geometry" />
        </mxCell>
        <mxCell id="sX6JPbbw8dcOBYZ7qyeX-20" style="edgeStyle=orthogonalEdgeStyle;rounded=0;orthogonalLoop=1;jettySize=auto;html=1;exitX=0;exitY=0.5;exitDx=0;exitDy=0;exitPerimeter=0;" edge="1" parent="1" source="sX6JPbbw8dcOBYZ7qyeX-8">
          <mxGeometry relative="1" as="geometry">
            <mxPoint x="280" y="120" as="targetPoint" />
          </mxGeometry>
        </mxCell>
        <mxCell id="sX6JPbbw8dcOBYZ7qyeX-8" value="" style="pointerEvents=1;verticalLabelPosition=bottom;shadow=0;dashed=0;align=center;html=1;verticalAlign=top;shape=mxgraph.electrical.resistors.resistor_2;" vertex="1" parent="1">
          <mxGeometry x="369" y="260" width="90" height="30" as="geometry" />
        </mxCell>
        <mxCell id="sX6JPbbw8dcOBYZ7qyeX-21" value="3,3 V" style="text;strokeColor=none;align=center;fillColor=none;html=1;verticalAlign=middle;whiteSpace=wrap;rounded=0;" vertex="1" parent="1">
          <mxGeometry x="56" y="267" width="60" height="30" as="geometry" />
        </mxCell>
        <mxCell id="sX6JPbbw8dcOBYZ7qyeX-22" value="LED" style="text;strokeColor=none;align=center;fillColor=none;html=1;verticalAlign=middle;whiteSpace=wrap;rounded=0;" vertex="1" parent="1">
          <mxGeometry x="384.0000030517578" y="157.99998779296874" width="60" height="30" as="geometry" />
        </mxCell>
        <mxCell id="sX6JPbbw8dcOBYZ7qyeX-23" value="100 K OHM" style="text;strokeColor=none;align=center;fillColor=none;html=1;verticalAlign=middle;whiteSpace=wrap;rounded=0;" vertex="1" parent="1">
          <mxGeometry x="384.0000030517578" y="304.99998779296874" width="60" height="30" as="geometry" />
        </mxCell>
        <mxCell id="sX6JPbbw8dcOBYZ7qyeX-24" value="photoresistance" style="text;strokeColor=none;align=center;fillColor=none;html=1;verticalAlign=middle;whiteSpace=wrap;rounded=0;" vertex="1" parent="1">
          <mxGeometry x="437.0000030517578" y="400.79998779296875" width="60" height="30" as="geometry" />
        </mxCell>
        <mxCell id="sX6JPbbw8dcOBYZ7qyeX-25" value="transistor NPN" style="text;strokeColor=none;align=center;fillColor=none;html=1;verticalAlign=middle;whiteSpace=wrap;rounded=0;" vertex="1" parent="1">
          <mxGeometry x="670.0000030517579" y="307.99998779296874" width="60" height="30" as="geometry" />
        </mxCell>
      </root>
    </mxGraphModel>
  </diagram>
</mxfile>
